<?xml version="1.0" encoding="UTF-8" standalone="no"?>
<svg
   xmlns:dc="http://purl.org/dc/elements/1.1/"
   xmlns:cc="http://creativecommons.org/ns#"
   xmlns:rdf="http://www.w3.org/1999/02/22-rdf-syntax-ns#"
   xmlns:svg="http://www.w3.org/2000/svg"
   xmlns="http://www.w3.org/2000/svg"
   xmlns:sodipodi="http://sodipodi.sourceforge.net/DTD/sodipodi-0.dtd"
   xmlns:inkscape="http://www.inkscape.org/namespaces/inkscape"
   width="275"
   height="136"
   viewBox="0 0 275 136"
   fill="none"
   version="1.1"
   id="svg162"
   sodipodi:docname="altium-logo.svg"
   inkscape:version="1.0 (4035a4fb49, 2020-05-01)">
  <metadata
     id="metadata166">
    <rdf:RDF>
      <cc:Work
         rdf:about="">
        <dc:format>image/svg+xml</dc:format>
        <dc:type
           rdf:resource="http://purl.org/dc/dcmitype/StillImage" />
      </cc:Work>
    </rdf:RDF>
  </metadata>
  <sodipodi:namedview
     inkscape:document-rotation="0"
     pagecolor="#ffffff"
     bordercolor="#666666"
     borderopacity="1"
     objecttolerance="10"
     gridtolerance="10"
     guidetolerance="10"
     inkscape:pageopacity="0"
     inkscape:pageshadow="2"
     inkscape:window-width="958"
     inkscape:window-height="1048"
     id="namedview164"
     showgrid="false"
     inkscape:zoom="0.8054589"
     inkscape:cx="8.8824972"
     inkscape:cy="364.95026"
     inkscape:window-x="2873"
     inkscape:window-y="0"
     inkscape:window-maximized="0"
     inkscape:current-layer="g129" />
  <g
     clip-path="url(#clip0)"
     id="g129">
    <path
       d="M108.971 44.6465H110.859L118.999 62.761H116.83L114.738 58.0076H105.016L102.898 62.761H100.832L108.971 44.6465ZM113.947 56.1884L109.89 47.0155L105.807 56.1884H113.947Z"
       fill="white"
       id="path93" />
    <path
       d="M122.647 44.775H124.663V60.8853H134.716V62.761H122.647V44.775Z"
       fill="white"
       id="path95" />
    <path
       d="M140.738 46.6507H134.742V44.775H148.775V46.6507H142.779V62.761H140.738V46.6507Z"
       fill="white"
       id="path97" />
    <path
       d="M152.858 44.775H154.873V62.761H152.858V44.775Z"
       fill="white"
       id="path99" />
    <path
       d="M159.951 55.2377V44.775H161.967V55.1041C161.967 58.984 164.008 61.168 167.427 61.168C170.718 61.168 172.811 59.1638 172.811 55.2326V44.775H174.826V55.0784C174.826 60.3201 171.841 63.0437 167.376 63.0437C162.962 63.0488 159.951 60.3252 159.951 55.2377Z"
       fill="white"
       id="path101" />
    <path
       d="M179.725 44.775H181.766L188.273 54.5902L194.779 44.775H196.821V62.761H194.805V48.1923L188.298 57.8277H188.196L181.69 48.218V62.761H179.725V44.775Z"
       fill="white"
       id="path103" />
    <path
       d="M101.419 70.4693H108.308C114.687 70.4693 118.386 74.1693 118.386 79.3596V79.4109C118.386 84.6012 114.636 88.4553 108.206 88.4553H101.419V70.4693ZM108.384 84.0359C111.344 84.0359 113.309 82.3915 113.309 79.488V79.4366C113.309 76.5589 111.344 74.8887 108.384 74.8887H106.369V84.0359H108.384Z"
       fill="white"
       id="path105" />
    <path
       d="M121.065 70.4693H135.431V74.7089H125.964V77.4325H134.538V81.3637H125.964V84.2158H135.558V88.4553H121.065V70.4693Z"
       fill="white"
       id="path107" />
    <path
       d="M136.859 85.7883L139.615 82.4737C141.376 83.8869 143.34 84.632 145.407 84.632C146.734 84.632 147.448 84.1695 147.448 83.3987V83.3473C147.448 82.6022 146.861 82.1911 144.437 81.6258C140.636 80.7522 137.701 79.673 137.701 75.9731V75.9217C137.701 72.5814 140.329 70.1662 144.616 70.1662C147.652 70.1662 150.025 70.9884 151.964 72.5557L149.49 76.0758C147.857 74.9196 146.07 74.3029 144.489 74.3029C143.289 74.3029 142.702 74.8168 142.702 75.4592V75.5106C142.702 76.3328 143.315 76.6925 145.79 77.2578C149.898 78.1571 152.449 79.4932 152.449 82.8591V82.9105C152.449 86.5848 149.566 88.7688 145.228 88.7688C142.065 88.7688 139.054 87.7668 136.859 85.7883Z"
       fill="white"
       id="path109" />
    <path
       d="M155.077 70.4693H160.053V88.4553H155.077V70.4693Z"
       fill="white"
       id="path111" />
    <path
       d="M162.834 79.5137V79.4623C162.834 74.2206 166.917 70.1095 172.453 70.1095C175.592 70.1095 177.812 71.0859 179.7 72.7304L176.791 76.2505C175.515 75.1713 174.239 74.5547 172.479 74.5547C169.902 74.5547 167.912 76.7387 167.912 79.488V79.5394C167.912 82.4428 169.927 84.5241 172.76 84.5241C173.959 84.5241 174.877 84.2671 175.617 83.7789V81.5949H172.096V77.9463H180.312V86.04C178.424 87.6074 175.796 88.815 172.555 88.815C166.993 88.8202 162.834 84.9609 162.834 79.5137Z"
       fill="white"
       id="path113" />
    <path
       d="M183.195 70.4693H187.814L195.162 79.9762V70.4693H200.061V88.4553H195.723L188.094 78.5887V88.4553H183.195V70.4693Z"
       fill="white"
       id="path115" />
    <path
       d="M203.352 70.4693H217.718V74.7089H208.251V77.4325H216.825V81.3637H208.251V84.2158H217.845V88.4553H203.352V70.4693Z"
       fill="white"
       id="path117" />
    <path
       d="M220.499 70.4693H228.944C231.675 70.4693 233.563 71.1888 234.762 72.4221C235.808 73.4499 236.344 74.8374 236.344 76.6103V76.6617C236.344 79.4109 234.89 81.2352 232.67 82.1859L236.931 88.4553H231.215L227.618 83.0081H225.449V88.4553H220.499V70.4693ZM228.715 79.1026C230.399 79.1026 231.368 78.2804 231.368 76.97V76.9186C231.368 75.5054 230.348 74.786 228.689 74.786H225.449V79.1026H228.715Z"
       fill="white"
       id="path119" />
    <path
       fill-rule="evenodd"
       clip-rule="evenodd"
       d="M20.5756 91.1326V115.275L5.6389 123.836C5.09797 124.134 4.4805 124.304 3.8222 124.304C1.77587 124.304 0.107165 122.659 0.00510308 120.599H0V105.66V105.218C0 103.666 0.887935 102.33 2.17391 101.698L20.5756 91.1326Z"
       fill="url(#paint0_linear)"
       id="path121" />
    <path
       fill-rule="evenodd"
       clip-rule="evenodd"
       d="M5.57766 11.9324C5.64911 11.9684 20.5756 20.6325 20.5756 20.6325C20.5756 20.6325 20.5756 39.1632 20.5756 42.6628C20.5756 43.0122 20.3919 43.336 20.0908 43.5159C17.5393 45.0113 5.66952 51.9847 1.47479 54.4514C1.17371 54.6312 0.79608 54.6312 0.494998 54.4565C0.188814 54.2766 0 53.9529 0 53.5983C0 45.9414 0 15.2984 0 15.2984L0.00510308 15.2932C0.0459277 13.1863 1.73505 11.4853 3.80689 11.4853C4.28658 11.4853 4.74586 11.5778 5.16942 11.7423L5.57766 11.9324Z"
       fill="url(#paint1_linear)"
       id="path123" />
    <path
       fill-rule="evenodd"
       clip-rule="evenodd"
       d="M0 105.239C0 105.29 0 88.8869 0 82.1345C0 80.3718 0.933863 78.7428 2.45458 77.8589C10.1143 73.4138 33.4507 59.8729 39.5488 56.3374C39.8499 56.1626 40.2275 56.1626 40.5286 56.3374C40.8297 56.5121 41.0185 56.841 41.0185 57.1904C41.0185 62.0569 41.0185 75.8548 41.0185 78.8353C41.0185 79.1899 40.8297 79.5188 40.5235 79.6935C36.0124 82.2835 2.17901 101.719 2.17901 101.719C0.887935 102.351 0 103.692 0 105.239Z"
       fill="url(#paint2_linear)"
       id="path125" />
    <path
       fill-rule="evenodd"
       clip-rule="evenodd"
       d="M5.68993 123.79C5.69503 123.79 48.4486 99.0207 59.2518 92.7616C60.7725 91.8829 61.7064 90.2487 61.7064 88.4861C61.7064 80.1149 61.7064 55.695 61.7064 47.3238C61.7064 45.5612 60.7674 43.927 59.2518 43.0483C48.4486 36.7891 5.67462 12.0095 5.67462 12.0095H5.66952C5.10818 11.6806 4.46009 11.4956 3.77117 11.4956C3.37824 11.4956 2.69442 11.6755 2.33721 11.7886C2.33721 11.7886 15.891 3.93637 21.5554 0.657774C23.0659 -0.220971 24.9285 -0.215832 26.4441 0.657774C35.9103 6.14094 70.0959 25.9564 79.5825 31.455C81.1032 32.3337 82.0371 33.9679 82.0371 35.7305C82.0371 47.108 82.0371 89.185 82.0371 100.568C82.0371 102.335 81.0981 103.964 79.5774 104.843C70.1367 110.306 36.2727 129.9 26.8728 135.337C25.3623 136.211 23.5099 136.211 21.9994 135.342C16.2176 132.012 2.1586 123.913 2.1586 123.913C2.6587 124.155 3.21494 124.294 3.80179 124.294C4.49071 124.299 5.13369 124.114 5.68993 123.79Z"
       fill="url(#paint3_linear)"
       id="path127" />
    <g
       transform="translate(1.94721,0.784038)"
       id="g80">
      <path
         id="path84"
         d="m 212.91552,115.20317 c -1.00906,-1.46283 0.11043,-3.19571 1.67783,-2.59718 1.82087,0.69533 4.50548,-0.69504 4.90675,-2.54124 0.30572,-1.40658 0.1386,-1.47954 -1.86458,-0.81407 -4.48804,1.49096 -6.026,-2.42517 -4.14789,-10.561858 1.28216,-5.554792 6.13536,-8.808648 8.2171,-5.509188 0.53102,0.841639 0.87761,0.994917 0.89032,0.393749 0.013,-0.613422 0.97432,-0.984373 2.55105,-0.984373 h 2.53023 l -0.59657,3.346868 c -0.3281,1.840777 -0.84859,4.587172 -1.15661,6.103112 -0.30804,1.51593 -0.91167,4.71818 -1.34142,7.11609 -0.63078,3.51969 -1.15796,4.61991 -2.73571,5.70937 -2.30423,1.5911 -7.9197,1.80409 -8.9305,0.33872 z m 7.75296,-12.0342 c 0.90322,-2.85825 0.80063,-6.643689 -0.17983,-6.636326 -1.06842,0.008 -2.45449,3.650856 -2.45449,6.450836 0,2.83805 1.75701,2.96177 2.63432,0.18549 z m -59.2631,4.97313 c 0.23059,-1.40765 0.97627,-5.39436 1.65706,-8.859355 0.68078,-3.464992 1.43678,-7.806076 1.67998,-9.646853 l 0.44219,-3.346867 h 4.46726 c 7.89084,0 9.18559,1.93949 7.81611,11.708161 -1.37239,9.789334 -4.16116,12.704284 -12.1544,12.704284 h -4.32747 z m 8.28461,-3.14999 c 1.19549,-1.18186 2.46271,-6.098113 2.68959,-10.434354 0.14183,-2.710797 -0.0341,-3.184068 -1.26186,-3.394385 -1.25123,-0.214334 -1.47743,0.221429 -1.8395,3.543742 -0.22706,2.083476 -0.68957,4.602147 -1.02782,5.597057 -0.7543,2.21871 -0.80639,5.67231 -0.0856,5.67231 0.29118,0 0.9775,-0.44297 1.52514,-0.98437 z m 9.40972,4.1477 c -0.95213,-1.26584 -1.09686,-2.35814 -0.76396,-5.766 0.52772,-5.402226 2.01302,-8.934651 4.37464,-10.403989 2.67196,-1.662425 6.00554,-1.473323 7.71013,0.437368 1.50845,1.690822 1.6918,2.937456 1.0234,6.958371 -0.40247,2.42114 -0.47126,2.46093 -4.25444,2.46093 -3.66537,0 -3.84536,0.0921 -3.84536,1.96874 0,2.37983 1.69029,2.67035 2.29085,0.39375 0.31122,-1.17978 0.99032,-1.57499 2.70633,-1.57499 2.06506,0 2.24904,0.17464 1.86658,1.77187 -0.23334,0.97453 -1.15322,2.56921 -2.04419,3.54374 -2.17588,2.37997 -7.34182,2.49977 -9.06398,0.21021 z m 8.04843,-12.031725 c 0.15126,-0.944998 -0.20122,-1.369082 -1.13792,-1.369082 -0.93669,0 -1.35704,0.505755 -1.35704,1.632736 0,2.018082 2.16638,1.789141 2.49496,-0.263654 z m 5.07619,12.076975 c -1.71869,-2.28495 -1.08188,-4.344 1.43398,-4.6366 1.61024,-0.18726 2.12186,0.0633 2.12186,1.03915 0,0.8831 0.46132,1.20708 1.47269,1.03426 2.21574,-0.37861 1.76923,-2.45286 -0.71234,-3.30916 -4.45118,-1.53592 -5.10103,-7.120242 -1.16466,-10.008187 3.75211,-2.752755 9.56772,-1.245853 9.56772,2.479131 0,1.22397 -0.45863,1.530346 -2.29085,1.530346 -1.25997,0 -2.29085,-0.354375 -2.29085,-0.787499 0,-0.433124 -0.61068,-0.787498 -1.35705,-0.787498 -2.02568,0 -1.31875,2.51912 0.90799,3.235594 2.76931,0.891047 3.7217,2.193463 3.7217,5.089483 0,2.04534 -0.47996,3.06019 -2.189,4.62857 -2.78186,2.55288 -7.48254,2.80389 -9.22119,0.49241 z m 12.06472,1.06532 c 0,-0.2481 0.60243,-3.52606 1.33873,-7.28436 0.7363,-3.7583 1.47825,-7.63061 1.64879,-8.605139 0.25869,-1.478299 0.74179,-1.771871 2.91571,-1.771871 2.80755,0 3.02251,0.466428 2.03267,4.410605 -0.31514,1.255721 -0.92937,4.232185 -1.36495,6.614375 -1.34841,7.37438 -1.18661,7.08748 -3.99694,7.08748 -1.4157,0 -2.57401,-0.20299 -2.57401,-0.45109 z m 22.46717,-0.92703 c 1.06859,-4.88621 1.81049,-8.97501 2.25052,-12.403099 l 0.50541,-3.937492 2.8337,-0.245904 c 2.08282,-0.180746 2.7044,0.0055 2.34576,0.703984 -0.26836,0.522442 0.40175,0.317575 1.48915,-0.45526 1.34004,-0.952393 2.55581,-1.230395 3.77315,-0.862791 1.75401,0.529655 1.78753,0.647504 1.43162,5.032405 -0.82267,10.135357 -1.58259,12.194477 -4.8914,13.254067 -2.07169,0.66342 -2.19286,0.31481 -1.427,-4.10528 1.54317,-8.906285 1.57773,-9.959249 0.31713,-9.660378 -1.14128,0.270577 -2.12706,3.662248 -3.22761,11.104748 -0.41936,2.83592 -0.54117,2.95312 -3.06925,2.95312 -2.18567,0 -2.58141,-0.23395 -2.33118,-1.37812 z m 16.49225,-0.17702 c -2.35674,-3.13322 0.32728,-14.448777 3.89054,-16.402135 2.39019,-1.310287 5.33465,-1.176507 7.24455,0.329135 1.66406,1.311838 1.93032,2.92417 1.20422,7.29223 -0.40247,2.42114 -0.47126,2.46093 -4.25444,2.46093 -3.66537,0 -3.84536,0.0921 -3.84536,1.96874 0,2.37983 1.69029,2.67035 2.29085,0.39375 0.31122,-1.17978 0.99032,-1.57499 2.70633,-1.57499 2.06506,0 2.24904,0.17464 1.86658,1.77187 -0.23334,0.97453 -1.15322,2.56921 -2.04419,3.54374 -2.17238,2.37615 -7.34178,2.49982 -9.05908,0.21673 z M 251.41515,97.314 c 0,-1.049995 -0.43635,-1.574997 -1.30906,-1.574997 -0.71998,0 -1.30905,0.148207 -1.30905,0.32934 0,0.18114 -0.17878,0.889889 -0.3973,1.574996 -0.29967,0.939572 0.022,1.245657 1.30906,1.245657 1.27,0 1.70635,-0.402766 1.70635,-1.574996 z m 4.20543,10.0406 c 0.23479,-1.84078 0.93094,-5.82748 1.54701,-8.859353 l 1.12012,-5.512488 2.45448,-0.244415 c 1.60135,-0.159453 2.45449,0.08826 2.45449,0.712678 0,0.624911 0.41543,0.504747 1.19696,-0.346208 1.41051,-1.535819 3.38855,-1.722692 3.37581,-0.318929 -0.0257,2.826969 -0.88152,4.528115 -2.27812,4.528115 -0.8139,0 -1.88061,0.581008 -2.37045,1.291127 -0.97945,1.419933 -2.46794,7.534203 -2.51343,10.324473 -0.0252,1.5447 -0.37408,1.77187 -2.72132,1.77187 h -2.69244 z M 187.10766,83.404985 c 0.44999,-0.218459 1.18634,-0.218459 1.63632,0 0.44999,0.21846 0.0818,0.397207 -0.81816,0.397207 -0.89998,0 -1.26815,-0.178747 -0.81816,-0.397207 z M 154.3812,82.58327 c 0.80998,-0.187708 2.1354,-0.187708 2.94538,0 0.80998,0.187701 0.14727,0.341279 -1.47269,0.341279 -1.61996,0 -2.28267,-0.153578 -1.47269,-0.341279 z m -24.6568,-1.478606 c 0.0314,-0.917396 0.1865,-1.103994 0.39544,-0.475783 0.18908,0.568471 0.16582,1.247689 -0.0517,1.509374 -0.2175,0.261678 -0.37219,-0.203442 -0.34377,-1.033591 z m -11.7056,-2.296873 c 0.0133,-1.299372 0.16003,-1.735599 0.32598,-0.969386 0.16595,0.766212 0.15504,1.829334 -0.0242,2.362494 -0.17929,0.53316 -0.31507,-0.09374 -0.30173,-1.393108 z m 62.81055,-1.968745 c 0,-1.08281 0.14856,-1.525778 0.33013,-0.984373 0.18158,0.541405 0.18158,1.427341 0,1.968746 -0.18157,0.541405 -0.33013,0.09844 -0.33013,-0.984373 z m -69.00714,-2.143358 c 1.16194,-0.173966 3.2237,-0.176825 4.5817,-0.0063 1.358,0.170478 0.40732,0.31281 -2.11262,0.316307 -2.51994,0.0031 -3.63102,-0.135985 -2.46908,-0.309952 z m 47.63623,-0.21012 c -0.22931,-0.446401 0.0334,-0.578418 0.6159,-0.309495 1.13392,0.523521 1.34138,1.087976 0.39989,1.087976 -0.33875,0 -0.79586,-0.350318 -1.01579,-0.778481 z m -30.26197,-4.734006 c 0,-1.949058 0.12764,-2.7464 0.28365,-1.771871 0.15601,0.974529 0.15601,2.569213 0,3.543742 -0.15601,0.974529 -0.28365,0.177187 -0.28365,-1.771871 z M 119.02956,51.726279 c -0.17786,-0.818306 -0.0695,-1.970022 0.2409,-2.55937 0.38365,-0.728538 0.56749,-0.252267 0.57431,1.487821 0.0112,2.865225 -0.32834,3.311556 -0.81521,1.071549 z m 98.77847,-2.646546 c 0.16687,-0.324843 2.64232,-0.590623 5.501,-0.590623 2.85868,0 5.1976,0.26578 5.1976,0.590623 0,0.324843 -2.47545,0.590624 -5.501,0.590624 -3.02554,0 -5.36446,-0.265781 -5.1976,-0.590624 z m -52.6271,-0.345971 c 0.62999,-0.198072 1.66087,-0.198072 2.29086,0 0.62998,0.198079 0.11454,0.360146 -1.14543,0.360146 -1.25997,0 -1.77541,-0.162067 -1.14543,-0.360146 z m 9.50798,-0.03481 c 1.53947,-0.166351 3.89578,-0.164012 5.23623,0.0055 1.34045,0.169209 0.0809,0.305321 -2.79905,0.302462 -2.87993,-0.0031 -3.97666,-0.141309 -2.43718,-0.307668 z m 14.39964,0 c 1.53948,-0.166351 3.89578,-0.164012 5.23623,0.0055 1.34045,0.169209 0.0809,0.305321 -2.79905,0.302462 -2.87993,-0.0031 -3.97666,-0.141309 -2.43718,-0.307668 z m 15.6914,7.88e-4 c 1.52996,-0.165792 4.03353,-0.165792 5.5635,0 1.52996,0.1658 0.27817,0.301454 -2.78175,0.301454 -3.05993,0 -4.31171,-0.135654 -2.78175,-0.301454 z m 30.80378,-0.748832 c 0.47248,-0.227485 1.03701,-0.199513 1.25451,0.06213 0.2175,0.261686 -0.16909,0.447803 -0.85906,0.41361 -0.7625,-0.0378 -0.91759,-0.22439 -0.39545,-0.475775 z m 15.66779,0.01638 c 0.44999,-0.21846 1.18633,-0.21846 1.63632,0 0.44999,0.21846 0.0818,0.397206 -0.81816,0.397206 -0.89998,0 -1.26815,-0.178746 -0.81816,-0.397206 z M 128.54194,42.976622 c 0,-1.949058 0.12764,-2.7464 0.28365,-1.771871 0.15601,0.974529 0.15601,2.569213 0,3.543742 -0.15601,0.974529 -0.28365,0.177187 -0.28365,-1.771871 z m -15.88697,0.49017 c 0,-0.163524 0.51544,-0.783678 1.14542,-1.378122 1.03812,-0.979545 1.06127,-0.951691 0.24712,0.297328 -0.85505,1.311775 -1.39254,1.728937 -1.39254,1.080794 z"
         style="fill:#a79562;stroke-width:0.717942" />
      <path
         id="path82"
         d="m 184.65318,82.627063 c -1.94566,-0.953306 -3.27265,-2.919429 -3.27265,-4.848886 0,-1.708919 2.45299,-14.893663 4.67998,-25.154702 l 0.72638,-3.346867 h 4.82391 c 5.2866,0 5.23055,-0.06969 4.11603,5.118738 -3.4218,15.929688 -3.83902,19.844522 -2.19577,20.60319 2.06651,0.954094 3.97678,-1.015337 4.8278,-4.977296 0.45051,-2.097383 1.06495,-4.699356 1.36543,-5.782166 0.30047,-1.08281 1.07179,-4.892333 1.71404,-8.465606 l 1.16772,-6.49686 h 5.17228 c 5.06213,0 5.1626,0.03772 4.71788,1.771871 -0.24992,0.974529 -0.70326,3.012181 -1.00744,4.528115 -2.25994,11.263248 -3.34517,16.465272 -3.86069,18.506208 -0.32821,1.299372 -0.78529,3.691398 -1.01575,5.315613 l -0.41901,2.953118 h -5.14529 c -4.9688,0 -5.13247,-0.05906 -4.77119,-1.721258 l 0.37412,-1.721251 -2.07619,1.778707 c -2.08902,1.789708 -7.90625,2.926776 -9.92159,1.939332 z M 95.637208,81.721535 c 0,-0.346499 0.257849,-0.966654 0.572998,-1.378122 0.315147,-0.411468 2.339411,-4.823427 4.498364,-9.804353 12.13149,-27.988624 11.41334,-26.608833 15.45874,-29.700976 1.85816,-1.420308 3.79632,-2.049433 7.29438,-2.367732 l 4.76384,-0.433486 0.37516,8.17924 c 0.20635,4.498584 0.53284,14.469382 0.72555,22.157334 l 0.35038,13.978093 h -5.79663 -5.79663 l 0.31446,-3.937491 0.31446,-3.937491 h -4.39402 -4.39403 l -1.38265,3.937491 -1.38265,3.937491 h -5.76086 c -3.168475,0 -5.760862,-0.283499 -5.760862,-0.629998 z M 119.20026,60.805243 c 0,-2.75485 0.1586,-6.741559 0.35245,-8.859355 l 0.35245,-3.850528 -2.03597,5.118739 c -1.11978,2.815306 -2.60381,6.481134 -3.29783,8.146275 -0.69403,1.66515 -1.26186,3.348427 -1.26186,3.740617 0,0.392198 1.32542,0.71308 2.94538,0.71308 h 2.94538 z m 13.39053,19.774419 c 0.17869,-0.974529 0.94697,-4.784051 1.70728,-8.465606 0.76032,-3.681554 1.77817,-8.81998 2.2619,-11.418724 0.48372,-2.598744 1.70919,-8.711148 2.72326,-13.583124 l 1.84376,-8.858142 5.00367,-0.0016 5.00367,-0.0016 -0.62749,2.953118 c -0.70991,3.34104 -2.21379,10.851206 -3.11444,15.55309 -0.94588,4.938008 -3.26698,16.254665 -3.95724,19.293707 -0.34431,1.515934 -0.80345,3.553586 -1.02031,4.528115 -0.36417,1.636531 -0.76682,1.771871 -5.27162,1.771871 -4.71788,0 -4.86671,-0.05796 -4.55244,-1.771871 z m 17.20871,0.921295 c -1.28957,-0.903686 -1.52496,-5.514709 -0.5194,-10.174399 0.32713,-1.515934 1.20623,-5.768424 1.95356,-9.449979 1.40706,-6.93163 2.34536,-11.295528 3.3018,-15.356215 0.30605,-1.299372 0.75131,-3.514211 0.98945,-4.921864 l 0.43299,-2.559369 h 4.92792 c 4.7828,0 4.91712,0.05221 4.561,1.771871 -0.20181,0.974529 -0.56592,3.277961 -0.80914,5.118738 -0.43822,3.316636 -0.42434,3.346868 1.5361,3.346868 1.93571,0 1.96679,0.06142 1.44359,2.852523 -0.65797,3.510014 -1.09635,4.045268 -3.58008,4.371237 -1.83467,0.240786 -2.01206,0.5637 -2.73716,4.982462 -0.42644,2.598744 -1.10253,6.290465 -1.50241,8.203818 -0.88636,4.24104 -0.53196,5.577401 1.47915,5.577401 1.48638,0 1.51442,0.116456 0.85352,3.543742 l -0.68336,3.543742 -5.25105,-0.02394 c -2.88808,-0.01315 -5.7665,-0.385149 -6.39648,-0.826629 z m 15.53646,-0.527546 c 0.5282,-1.586887 2.90228,-12.826314 4.5328,-21.459326 1.99892,-10.58352 1.74856,-10.237477 7.40677,-10.237477 4.41171,0 4.85207,0.137221 4.42238,1.378122 -0.26247,0.757967 -0.74718,2.972806 -1.07714,4.921864 -0.89008,5.257676 -1.91404,10.376517 -2.52046,12.599971 -0.29533,1.08281 -1.04751,4.715146 -1.67152,8.071857 l -1.13455,6.103111 h -5.2085 c -4.69887,0 -5.16361,-0.134843 -4.74978,-1.378122 z m 46.15291,-0.159822 c 0,-0.845868 0.27059,-2.351958 0.6013,-3.346868 0.33071,-0.994909 1.53805,-6.770161 2.68297,-12.833898 3.15198,-16.693592 2.20393,-14.924548 8.14282,-15.194282 4.86234,-0.220846 5.08744,-0.155594 4.75408,1.378122 -0.38493,1.77106 0.46703,2.182622 1.29496,0.625565 1.02843,-1.934119 3.5086,-2.953118 7.18765,-2.953118 3.18313,0 4.01573,0.320779 5.621,2.16562 1.63314,1.87686 1.98874,2.00812 2.667,0.984372 1.47099,-2.220241 3.68372,-3.149992 7.49673,-3.149992 5.10032,0 6.93643,1.865827 6.48915,6.594203 -0.28418,3.004227 -2.00049,11.799306 -3.92065,20.091072 -1.11165,4.800424 -3.81659,7.177148 -8.16826,7.177148 h -3.31764 l 0.57427,-2.16562 c 1.20127,-4.530123 3.41133,-16.494867 3.70929,-20.081205 0.30736,-3.699461 0.28959,-3.740616 -1.61454,-3.740616 -3.19262,0 -4.02871,1.956894 -6.39285,14.962466 -0.59049,3.24843 -1.40437,7.057953 -1.80862,8.465606 l -0.735,2.559369 h -4.85381 c -4.73026,0 -4.84239,-0.04512 -4.40489,-1.771871 0.2469,-0.974529 0.86301,-4.075303 1.3691,-6.890609 0.5061,-2.815306 1.25659,-6.536235 1.66774,-8.268732 0.41116,-1.732496 0.78665,-4.390302 0.83445,-5.906236 0.0773,-2.45316 -0.11136,-2.78368 -1.71605,-3.005771 -0.99162,-0.137245 -2.17868,0.217129 -2.63793,0.787499 -0.93838,1.165458 -2.17935,5.583803 -3.05603,10.880752 -0.32259,1.949058 -1.09962,5.935768 -1.72674,8.859355 l -1.14022,5.315613 h -4.79964 c -4.32474,0 -4.79964,-0.152168 -4.79964,-1.537944 z"
         style="fill:#1d1f1e;stroke-width:0.717942" />
    </g>
  </g>
  <defs
     id="defs160">
    <linearGradient
       id="paint0_linear"
       x1="16.7206"
       y1="117.516"
       x2="6.16868"
       y2="99.3668"
       gradientUnits="userSpaceOnUse">
      <stop
         stop-color="#D9C185"
         id="stop131" />
      <stop
         offset="1"
         stop-color="#8E783E"
         id="stop133" />
    </linearGradient>
    <linearGradient
       id="paint1_linear"
       x1="-1.2602"
       y1="53.6343"
       x2="16.0199"
       y2="16.8351"
       gradientUnits="userSpaceOnUse">
      <stop
         offset="0.1817"
         stop-color="#D9C185"
         id="stop136" />
      <stop
         offset="1"
         stop-color="#907C44"
         id="stop138" />
    </linearGradient>
    <linearGradient
       id="paint2_linear"
       x1="2.93161"
       y1="107.157"
       x2="37.4724"
       y2="54.3392"
       gradientUnits="userSpaceOnUse">
      <stop
         stop-color="#D9C185"
         id="stop141" />
      <stop
         offset="0.2781"
         stop-color="#C8B176"
         id="stop143" />
      <stop
         offset="1"
         stop-color="#9F8951"
         id="stop145" />
    </linearGradient>
    <linearGradient
       id="paint3_linear"
       x1="42.099"
       y1="-7.59105e-08"
       x2="42.099"
       y2="135.999"
       gradientUnits="userSpaceOnUse">
      <stop
         stop-color="#D9C185"
         id="stop148" />
      <stop
         offset="0.2253"
         stop-color="#CEB67A"
         id="stop150" />
      <stop
         offset="0.6221"
         stop-color="#B0995E"
         id="stop152" />
      <stop
         offset="1"
         stop-color="#8E783E"
         id="stop154" />
    </linearGradient>
    <clipPath
       id="clip0">
      <rect
         width="274.015"
         height="136"
         fill="white"
         id="rect157" />
    </clipPath>
  </defs>
</svg>
